<svg width="152" height="152" viewBox="0 0 152 152" fill="none" xmlns="http://www.w3.org/2000/svg">
<g clip-path="url(#clip0_9_52)">
<circle cx="76" cy="76" r="76" fill="#D2D2D2"/>
<path d="M31.5227 91V61.9091H35.0455V87.875H48.5682V91H31.5227ZM62.4318 91.4545C60.4621 91.4545 58.7339 90.9858 57.2472 90.0483C55.7699 89.1108 54.6146 87.7992 53.7812 86.1136C52.9574 84.428 52.5455 82.4583 52.5455 80.2045C52.5455 77.9318 52.9574 75.9479 53.7812 74.2528C54.6146 72.5578 55.7699 71.2415 57.2472 70.304C58.7339 69.3665 60.4621 68.8977 62.4318 68.8977C64.4015 68.8977 66.125 69.3665 67.6023 70.304C69.089 71.2415 70.2443 72.5578 71.0682 74.2528C71.9015 75.9479 72.3182 77.9318 72.3182 80.2045C72.3182 82.4583 71.9015 84.428 71.0682 86.1136C70.2443 87.7992 69.089 89.1108 67.6023 90.0483C66.125 90.9858 64.4015 91.4545 62.4318 91.4545ZM62.4318 88.4432C63.928 88.4432 65.1591 88.0597 66.125 87.2926C67.0909 86.5256 67.8059 85.517 68.2699 84.267C68.7339 83.017 68.9659 81.6629 68.9659 80.2045C68.9659 78.7462 68.7339 77.3873 68.2699 76.1278C67.8059 74.8684 67.0909 73.8504 66.125 73.0739C65.1591 72.2973 63.928 71.9091 62.4318 71.9091C60.9356 71.9091 59.7045 72.2973 58.7386 73.0739C57.7727 73.8504 57.0578 74.8684 56.5938 76.1278C56.1297 77.3873 55.8977 78.7462 55.8977 80.2045C55.8977 81.6629 56.1297 83.017 56.5938 84.267C57.0578 85.517 57.7727 86.5256 58.7386 87.2926C59.7045 88.0597 60.9356 88.4432 62.4318 88.4432ZM86.2422 99.6364C84.6229 99.6364 83.2308 99.428 82.0661 99.0114C80.9013 98.6042 79.9306 98.0644 79.1541 97.392C78.3871 96.7292 77.7763 96.0189 77.3217 95.2614L79.9922 93.3864C80.2952 93.7841 80.6787 94.2386 81.1428 94.75C81.6068 95.2708 82.2412 95.7206 83.0462 96.0994C83.8606 96.4877 84.9259 96.6818 86.2422 96.6818C88.0036 96.6818 89.4572 96.2557 90.603 95.4034C91.7488 94.5511 92.3217 93.2159 92.3217 91.3977V86.9659H92.0376C91.7914 87.3636 91.4411 87.8561 90.9865 88.4432C90.5414 89.0208 89.8975 89.5369 89.0547 89.9915C88.2214 90.4366 87.0945 90.6591 85.674 90.6591C83.9126 90.6591 82.3312 90.2424 80.9297 89.4091C79.5376 88.5758 78.4344 87.3636 77.62 85.7727C76.8151 84.1818 76.4126 82.25 76.4126 79.9773C76.4126 77.7424 76.8056 75.7964 77.5916 74.1392C78.3776 72.4725 79.4714 71.1847 80.8729 70.2756C82.2744 69.357 83.8937 68.8977 85.7308 68.8977C87.1513 68.8977 88.2782 69.1345 89.1115 69.608C89.9543 70.072 90.5982 70.6023 91.0433 71.1989C91.4979 71.786 91.8482 72.2689 92.0945 72.6477H92.4354V69.1818H95.674V91.625C95.674 93.5 95.2479 95.0246 94.3956 96.1989C93.5528 97.3826 92.4164 98.2491 90.9865 98.7983C89.5661 99.357 87.9846 99.6364 86.2422 99.6364ZM86.1286 87.6477C87.4732 87.6477 88.6096 87.34 89.5376 86.7244C90.4657 86.1089 91.1712 85.2235 91.6541 84.0682C92.1371 82.9129 92.3786 81.5303 92.3786 79.9205C92.3786 78.3485 92.1418 76.9612 91.6683 75.7585C91.1948 74.5559 90.4941 73.6136 89.5661 72.9318C88.638 72.25 87.4922 71.9091 86.1286 71.9091C84.7081 71.9091 83.5244 72.2689 82.5774 72.9886C81.6399 73.7083 80.9344 74.6742 80.4609 75.8864C79.9969 77.0985 79.7649 78.4432 79.7649 79.9205C79.7649 81.4356 80.0017 82.7756 80.4751 83.9403C80.9581 85.0956 81.6683 86.0047 82.6058 86.6676C83.5528 87.321 84.727 87.6477 86.1286 87.6477ZM110.674 91.4545C108.704 91.4545 106.976 90.9858 105.489 90.0483C104.012 89.1108 102.857 87.7992 102.023 86.1136C101.2 84.428 100.788 82.4583 100.788 80.2045C100.788 77.9318 101.2 75.9479 102.023 74.2528C102.857 72.5578 104.012 71.2415 105.489 70.304C106.976 69.3665 108.704 68.8977 110.674 68.8977C112.644 68.8977 114.367 69.3665 115.844 70.304C117.331 71.2415 118.487 72.5578 119.31 74.2528C120.144 75.9479 120.56 77.9318 120.56 80.2045C120.56 82.4583 120.144 84.428 119.31 86.1136C118.487 87.7992 117.331 89.1108 115.844 90.0483C114.367 90.9858 112.644 91.4545 110.674 91.4545ZM110.674 88.4432C112.17 88.4432 113.401 88.0597 114.367 87.2926C115.333 86.5256 116.048 85.517 116.512 84.267C116.976 83.017 117.208 81.6629 117.208 80.2045C117.208 78.7462 116.976 77.3873 116.512 76.1278C116.048 74.8684 115.333 73.8504 114.367 73.0739C113.401 72.2973 112.17 71.9091 110.674 71.9091C109.178 71.9091 107.947 72.2973 106.981 73.0739C106.015 73.8504 105.3 74.8684 104.836 76.1278C104.372 77.3873 104.14 78.7462 104.14 80.2045C104.14 81.6629 104.372 83.017 104.836 84.267C105.3 85.517 106.015 86.5256 106.981 87.2926C107.947 88.0597 109.178 88.4432 110.674 88.4432Z" fill="black"/>
</g>
<defs>
<clipPath id="clip0_9_52">
<rect width="152" height="152" fill="white"/>
</clipPath>
</defs>
</svg>
